<?xml version="1.0" encoding="UTF-8" standalone="no"?>
<!-- Created with Inkscape (http://www.inkscape.org/) -->

<svg
   xmlns:dc="http://purl.org/dc/elements/1.1/"
   xmlns:cc="http://creativecommons.org/ns#"
   xmlns:rdf="http://www.w3.org/1999/02/22-rdf-syntax-ns#"
   xmlns:svg="http://www.w3.org/2000/svg"
   xmlns="http://www.w3.org/2000/svg"
   xmlns:sodipodi="http://sodipodi.sourceforge.net/DTD/sodipodi-0.dtd"
   xmlns:inkscape="http://www.inkscape.org/namespaces/inkscape"
   width="24.054346mm"
   height="24.187672mm"
   viewBox="0 0 24.054346 24.187672"
   version="1.1"
   id="svg8"
   inkscape:version="0.92.2 (5c3e80d, 2017-08-06)"
   sodipodi:docname="irllogo.svg">
  <defs
     id="defs2" />
  <sodipodi:namedview
     id="base"
     pagecolor="#ffffff"
     bordercolor="#666666"
     borderopacity="1.0"
     inkscape:pageopacity="0.0"
     inkscape:pageshadow="2"
     inkscape:zoom="0.49497475"
     inkscape:cx="143.62731"
     inkscape:cy="-153.18636"
     inkscape:document-units="mm"
     inkscape:current-layer="layer1"
     showgrid="false"
     inkscape:window-width="1920"
     inkscape:window-height="1001"
     inkscape:window-x="-9"
     inkscape:window-y="1116"
     inkscape:window-maximized="1"
     inkscape:pagecheckerboard="true" />
  <metadata
     id="metadata5">
    <rdf:RDF>
      <cc:Work
         rdf:about="">
        <dc:format>image/svg+xml</dc:format>
        <dc:type
           rdf:resource="http://purl.org/dc/dcmitype/StillImage" />
        <dc:title></dc:title>
      </cc:Work>
    </rdf:RDF>
  </metadata>
  <g
     inkscape:label="Layer 1"
     inkscape:groupmode="layer"
     id="layer1"
     transform="translate(-13.630692,-43.762186)">
    <path
       style="opacity:1;fill:#e8a33d;fill-opacity:1;fill-rule:nonzero;stroke:none;stroke-width:0.74058175;stroke-miterlimit:4;stroke-dasharray:none;stroke-opacity:1"
       d="m 96.974609,165.40039 a 45.456863,45.709404 0 0 0 -45.457031,45.70899 45.456863,45.709404 0 0 0 45.457031,45.70898 45.456863,45.709404 0 0 0 45.457031,-45.70898 45.456863,45.709404 0 0 0 -45.457031,-45.70899 z m 8.998051,10.20313 h 5.125 v 38.4375 c 0,2.9375 1.13541,4.40625 3.40625,4.40625 0.91666,0 1.73958,-0.11459 2.46875,-0.34375 v 4.625 c -0.39584,0.10416 -0.92709,0.19791 -1.59375,0.28125 -0.64584,0.10416 -1.33334,0.15625 -2.0625,0.15625 -1.02084,0 -1.97917,-0.16667 -2.875,-0.5 -0.89584,-0.33334 -1.67709,-0.84375 -2.34375,-1.53125 -0.64584,-0.6875 -1.16667,-1.54167 -1.5625,-2.5625 -0.375,-1.04167 -0.5625,-2.25 -0.5625,-3.625 z m -35.875004,0.59375 c 0.9375,0 1.729167,0.32291 2.375,0.96875 0.666667,0.625 1,1.41666 1,2.375 0,0.91666 -0.333333,1.69791 -1,2.34375 -0.645833,0.64583 -1.4375,0.96875 -2.375,0.96875 -0.916666,0 -1.697916,-0.3125 -2.34375,-0.9375 -0.645833,-0.625 -0.96875,-1.41667 -0.96875,-2.375 0,-0.95834 0.322917,-1.75 0.96875,-2.375 0.645834,-0.64584 1.427084,-0.96875 2.34375,-0.96875 z m 27.59375,14.21875 c 1.333334,0 2.354164,0.14583 3.062504,0.4375 v 5.3125 c -0.895837,-0.6875 -2.187504,-1.03125 -3.875004,-1.03125 -2.1875,0 -4.020833,1.03125 -5.5,3.09375 -1.458333,2.0625 -2.1875,4.875 -2.1875,8.4375 v 16.3125 h -5.125 v -32 h 5.125 v 6.59375 h 0.125 c 0.729167,-2.25 1.84375,-4 3.34375,-5.25 1.5,-1.27084 3.177084,-1.90625 5.03125,-1.90625 z m -30.21875,0.5625 h 5.125 v 23.0625 c 0,2.9375 1.135417,4.40625 3.40625,4.40625 0.916667,0 1.739584,-0.11459 2.46875,-0.34375 v 4.625 c -0.395833,0.10416 -0.927083,0.19791 -1.59375,0.28125 -0.645833,0.10416 -1.333333,0.15625 -2.0625,0.15625 -1.020833,0 -1.979166,-0.16667 -2.875,-0.5 -0.895833,-0.33334 -1.677083,-0.84375 -2.34375,-1.53125 -0.645833,-0.6875 -1.166666,-1.54167 -1.5625,-2.5625 -0.375,-1.04167 -0.5625,-2.25 -0.5625,-3.625 z"
       transform="scale(0.26458333)"
       id="path4584"
       inkscape:connector-curvature="0" />
    <flowRoot
       xml:space="preserve"
       id="flowRoot4586"
       style="font-style:normal;font-weight:normal;font-size:192px;line-height:1.25;font-family:sans-serif;letter-spacing:0px;word-spacing:0px;fill:#000000;fill-opacity:1;stroke:none"><flowRegion
         id="flowRegion4588"
         style="font-size:192px"><rect
           id="rect4590"
           width="311.12698"
           height="262.63965"
           x="53.033009"
           y="68.93058"
           style="font-size:192px" /></flowRegion><flowPara
         id="flowPara4592" /></flowRoot>    <flowRoot
       xml:space="preserve"
       id="flowRoot4594"
       style="font-style:normal;font-weight:normal;font-size:192px;line-height:1.25;font-family:sans-serif;letter-spacing:0px;word-spacing:0px;fill:#000000;fill-opacity:1;stroke:none"><flowRegion
         id="flowRegion4596"
         style="font-size:192px"><rect
           id="rect4598"
           width="296.47977"
           height="241.42645"
           x="45.456863"
           y="77.516876"
           style="font-size:192px" /></flowRegion><flowPara
         id="flowPara4600" /></flowRoot>  </g>
</svg>
