<?xml version="1.0" encoding="UTF-8" standalone="no"?>
<!-- Created with Inkscape (http://www.inkscape.org/) -->

<svg
   xmlns:dc="http://purl.org/dc/elements/1.1/"
   xmlns:cc="http://creativecommons.org/ns#"
   xmlns:rdf="http://www.w3.org/1999/02/22-rdf-syntax-ns#"
   xmlns:svg="http://www.w3.org/2000/svg"
   xmlns="http://www.w3.org/2000/svg"
   xmlns:sodipodi="http://sodipodi.sourceforge.net/DTD/sodipodi-0.dtd"
   xmlns:inkscape="http://www.inkscape.org/namespaces/inkscape"
   width="210mm"
   height="297mm"
   viewBox="0 0 210 297"
   version="1.1"
   id="svg8"
   inkscape:version="0.92.2 (5c3e80d, 2017-08-06)"
   sodipodi:docname="irllogowhite.svg">
  <defs
     id="defs2">
    <pattern
       inkscape:isstock="true"
       inkscape:stockid="Stripes 1:1"
       id="Strips1_1"
       patternTransform="translate(0,0) scale(10,10)"
       height="1"
       width="2"
       patternUnits="userSpaceOnUse"
       inkscape:collect="always">
      <rect
         id="rect5330"
         height="2"
         width="1"
         y="-0.5"
         x="0"
         style="fill:black;stroke:none" />
    </pattern>
    <filter
       style="color-interpolation-filters:sRGB;"
       inkscape:label="Invert"
       id="filter6050">
      <feColorMatrix
         values="1 0 0 0 0 0 1 0 0 0 0 0 1 0 0 -0.21 -0.72 -0.07 2 0 "
         result="fbSourceGraphic"
         id="feColorMatrix6048" />
      <feColorMatrix
         result="fbSourceGraphicAlpha"
         in="fbSourceGraphic"
         values="0 0 0 -1 0 0 0 0 -1 0 0 0 0 -1 0 0 0 0 1 0"
         id="feColorMatrix6064" />
      <feColorMatrix
         id="feColorMatrix6066"
         values="1 0 0 0 0 0 1 0 0 0 0 0 1 0 0 -0.21 -0.72 -0.07 2 0 "
         result="color2"
         in="fbSourceGraphic" />
    </filter>
    <filter
       style="color-interpolation-filters:sRGB;"
       inkscape:label="Invert"
       id="filter6054">
      <feColorMatrix
         values="1 0 0 0 0 0 1 0 0 0 0 0 1 0 0 -0.21 -0.72 -0.07 2 0 "
         result="fbSourceGraphic"
         id="feColorMatrix6052" />
      <feColorMatrix
         result="fbSourceGraphicAlpha"
         in="fbSourceGraphic"
         values="0 0 0 -1 0 0 0 0 -1 0 0 0 0 -1 0 0 0 0 1 0"
         id="feColorMatrix6068" />
      <feColorMatrix
         id="feColorMatrix6070"
         values="1 0 0 0 0 0 1 0 0 0 0 0 1 0 0 -0.21 -0.72 -0.07 2 0 "
         result="color2"
         in="fbSourceGraphic" />
    </filter>
    <filter
       style="color-interpolation-filters:sRGB;"
       inkscape:label="Invert"
       id="filter6058">
      <feColorMatrix
         values="1 0 0 0 0 0 1 0 0 0 0 0 1 0 0 -0.21 -0.72 -0.07 2 0 "
         result="fbSourceGraphic"
         id="feColorMatrix6056" />
      <feColorMatrix
         result="fbSourceGraphicAlpha"
         in="fbSourceGraphic"
         values="0 0 0 -1 0 0 0 0 -1 0 0 0 0 -1 0 0 0 0 1 0"
         id="feColorMatrix6072" />
      <feColorMatrix
         id="feColorMatrix6074"
         values="1 0 0 0 0 0 1 0 0 0 0 0 1 0 0 -0.21 -0.72 -0.07 2 0 "
         result="color2"
         in="fbSourceGraphic" />
    </filter>
    <filter
       style="color-interpolation-filters:sRGB;"
       inkscape:label="Invert"
       id="filter6062">
      <feColorMatrix
         values="1 0 0 0 0 0 1 0 0 0 0 0 1 0 0 -0.21 -0.72 -0.07 2 0 "
         result="fbSourceGraphic"
         id="feColorMatrix6060" />
      <feColorMatrix
         result="fbSourceGraphicAlpha"
         in="fbSourceGraphic"
         values="0 0 0 -1 0 0 0 0 -1 0 0 0 0 -1 0 0 0 0 1 0"
         id="feColorMatrix6076" />
      <feColorMatrix
         id="feColorMatrix6078"
         values="1 0 0 0 0 0 1 0 0 0 0 0 1 0 0 -0.21 -0.72 -0.07 2 0 "
         result="color2"
         in="fbSourceGraphic" />
    </filter>
  </defs>
  <sodipodi:namedview
     id="base"
     pagecolor="#ffffff"
     bordercolor="#666666"
     borderopacity="1.0"
     inkscape:pageopacity="0.0"
     inkscape:pageshadow="2"
     inkscape:zoom="11.2"
     inkscape:cx="105.6367"
     inkscape:cy="916.25505"
     inkscape:document-units="mm"
     inkscape:current-layer="layer1"
     showgrid="true"
     inkscape:window-width="2000"
     inkscape:window-height="1046"
     inkscape:window-x="1081"
     inkscape:window-y="-9"
     inkscape:window-maximized="1"
     inkscape:pagecheckerboard="true"
     inkscape:snap-text-baseline="true" />
  <metadata
     id="metadata5">
    <rdf:RDF>
      <cc:Work
         rdf:about="">
        <dc:format>image/svg+xml</dc:format>
        <dc:type
           rdf:resource="http://purl.org/dc/dcmitype/StillImage" />
        <dc:title></dc:title>
      </cc:Work>
    </rdf:RDF>
  </metadata>
  <g
     inkscape:label="Layer 1"
     inkscape:groupmode="layer"
     id="layer1"
     style="display:inline">
    <path
       style="opacity:1;fill:#ffffff;fill-opacity:1;fill-rule:nonzero;stroke:none;stroke-width:0.74058175;stroke-miterlimit:4;stroke-dasharray:none;stroke-opacity:1;filter:url(#filter6050)"
       d="m 96.974609,165.40039 a 45.456863,45.709404 0 0 0 -45.457031,45.70899 45.456863,45.709404 0 0 0 45.457031,45.70898 45.456863,45.709404 0 0 0 45.457031,-45.70898 45.456863,45.709404 0 0 0 -45.457031,-45.70899 z m 8.998051,10.20313 h 5.125 v 38.4375 c 0,2.9375 1.13541,4.40625 3.40625,4.40625 0.91666,0 1.73958,-0.11459 2.46875,-0.34375 v 4.625 c -0.39584,0.10416 -0.92709,0.19791 -1.59375,0.28125 -0.64584,0.10416 -1.33334,0.15625 -2.0625,0.15625 -1.02084,0 -1.97917,-0.16667 -2.875,-0.5 -0.89584,-0.33334 -1.67709,-0.84375 -2.34375,-1.53125 -0.64584,-0.6875 -1.16667,-1.54167 -1.5625,-2.5625 -0.375,-1.04167 -0.5625,-2.25 -0.5625,-3.625 z m -35.875004,0.59375 c 0.9375,0 1.729167,0.32291 2.375,0.96875 0.666667,0.625 1,1.41666 1,2.375 0,0.91666 -0.333333,1.69791 -1,2.34375 -0.645833,0.64583 -1.4375,0.96875 -2.375,0.96875 -0.916666,0 -1.697916,-0.3125 -2.34375,-0.9375 -0.645833,-0.625 -0.96875,-1.41667 -0.96875,-2.375 0,-0.95834 0.322917,-1.75 0.96875,-2.375 0.645834,-0.64584 1.427084,-0.96875 2.34375,-0.96875 z m 27.59375,14.21875 c 1.333334,0 2.354164,0.14583 3.062504,0.4375 v 5.3125 c -0.895837,-0.6875 -2.187504,-1.03125 -3.875004,-1.03125 -2.1875,0 -4.020833,1.03125 -5.5,3.09375 -1.458333,2.0625 -2.1875,4.875 -2.1875,8.4375 v 16.3125 h -5.125 v -32 h 5.125 v 6.59375 h 0.125 c 0.729167,-2.25 1.84375,-4 3.34375,-5.25 1.5,-1.27084 3.177084,-1.90625 5.03125,-1.90625 z m -30.21875,0.5625 h 5.125 v 23.0625 c 0,2.9375 1.135417,4.40625 3.40625,4.40625 0.916667,0 1.739584,-0.11459 2.46875,-0.34375 v 4.625 c -0.395833,0.10416 -0.927083,0.19791 -1.59375,0.28125 -0.645833,0.10416 -1.333333,0.15625 -2.0625,0.15625 -1.020833,0 -1.979166,-0.16667 -2.875,-0.5 -0.895833,-0.33334 -1.677083,-0.84375 -2.34375,-1.53125 -0.645833,-0.6875 -1.166666,-1.54167 -1.5625,-2.5625 -0.375,-1.04167 -0.5625,-2.25 -0.5625,-3.625 z"
       transform="scale(0.26458333)"
       id="path4584"
       inkscape:connector-curvature="0" />
    <flowRoot
       xml:space="preserve"
       id="flowRoot4586"
       transform="scale(0.26458333)"><flowRegion
         id="flowRegion4588"
         style="font-size:192px;fill:#e8a33d;fill-opacity:1"><rect
           id="rect4590"
           width="311.12698"
           height="262.63965"
           x="53.033009"
           y="68.93058"
           style="font-size:192px;fill:#e8a33d;fill-opacity:1" /></flowRegion><flowPara
         id="flowPara4592"></flowPara></flowRoot>    <flowRoot
       xml:space="preserve"
       id="flowRoot4594"
       transform="scale(0.26458333)"><flowRegion
         id="flowRegion4596"
         style="font-size:192px;fill:#e8a33d;fill-opacity:1"><rect
           id="rect4598"
           width="296.47977"
           height="241.42645"
           x="45.456863"
           y="77.516876"
           style="font-size:192px;fill:#e8a33d;fill-opacity:1" /></flowRegion><flowPara
         id="flowPara4600"></flowPara></flowRoot>  </g>
</svg>
