<?xml version="1.0" encoding="UTF-8" standalone="no"?>
<!-- Created with Inkscape (http://www.inkscape.org/) -->

<svg
   xmlns:dc="http://purl.org/dc/elements/1.1/"
   xmlns:cc="http://creativecommons.org/ns#"
   xmlns:rdf="http://www.w3.org/1999/02/22-rdf-syntax-ns#"
   xmlns:svg="http://www.w3.org/2000/svg"
   xmlns="http://www.w3.org/2000/svg"
   xmlns:sodipodi="http://sodipodi.sourceforge.net/DTD/sodipodi-0.dtd"
   xmlns:inkscape="http://www.inkscape.org/namespaces/inkscape"
   width="15.3634mm"
   height="5.420414mm"
   viewBox="0 0 15.3634 5.420414"
   version="1.1"
   id="svg8"
   inkscape:version="0.92.2 (5c3e80d, 2017-08-06)"
   sodipodi:docname="orangeburger.svg">
  <defs
     id="defs2" />
  <sodipodi:namedview
     id="base"
     pagecolor="#ffffff"
     bordercolor="#666666"
     borderopacity="1.0"
     inkscape:pageopacity="0.0"
     inkscape:pageshadow="2"
     inkscape:zoom="3.959798"
     inkscape:cx="103.97673"
     inkscape:cy="17.712334"
     inkscape:document-units="mm"
     inkscape:current-layer="layer1"
     showgrid="false"
     inkscape:pagecheckerboard="true"
     inkscape:lockguides="false"
     inkscape:window-width="1920"
     inkscape:window-height="1001"
     inkscape:window-x="-9"
     inkscape:window-y="1116"
     inkscape:window-maximized="1" />
  <metadata
     id="metadata5">
    <rdf:RDF>
      <cc:Work
         rdf:about="">
        <dc:format>image/svg+xml</dc:format>
        <dc:type
           rdf:resource="http://purl.org/dc/dcmitype/StillImage" />
        <dc:title></dc:title>
      </cc:Work>
    </rdf:RDF>
  </metadata>
  <g
     inkscape:label="Layer 1"
     inkscape:groupmode="layer"
     id="layer1"
     transform="translate(-6.4524675,-8.2858011)">
    <path
       style="fill:#ff6600;stroke-width:0.26458332"
       id="path16"
       d="m 8.1881402,8.2882601 c 1.428111,0.028616 2.8566038,0.030913 4.2849528,0.031825 1.680172,-0.0018 3.360343,-0.00406 5.040503,-0.010766 0.874744,-0.00385 1.749466,-0.011033 2.624202,-0.016028 0.35033,-0.00308 0.700664,-0.00483 1.051003,-0.00619 0.209021,-8.466e-4 0.418044,-0.00114 0.627066,-0.0013 0,0 -1.136451,0.8256801 -1.136451,0.8256801 v 0 c -0.207842,-1.439e-4 -0.415684,-4.233e-4 -0.623524,-0.0013 -0.344665,-0.00135 -0.689323,-0.00309 -1.033977,-0.00619 -0.860029,-0.00499 -1.720042,-0.012205 -2.580078,-0.016028 -1.670283,-0.00674 -3.340576,-0.00896 -5.010871,-0.010766 -1.4575537,9.26e-4 -2.9152311,0.0038 -4.3725598,0.031825 0,0 1.129734,-0.8207999 1.129734,-0.8207999 z"
       inkscape:connector-curvature="0" />
    <path
       style="fill:#ff6600;stroke-width:0.26458332"
       id="path16-8"
       d="m 7.9162889,10.678042 c 1.428111,0.02862 2.8566031,0.03091 4.2849521,0.03182 1.680173,-0.0018 3.360343,-0.0041 5.040504,-0.01077 0.874744,-0.0038 1.749466,-0.01103 2.624202,-0.01603 0.35033,-0.0031 0.700664,-0.0048 1.051003,-0.0062 0.209021,-8.47e-4 0.418044,-0.0011 0.627066,-0.0013 0,0 -1.136451,0.82568 -1.136451,0.82568 v 0 c -0.207842,-1.44e-4 -0.415684,-4.23e-4 -0.623524,-0.0013 -0.344665,-0.0013 -0.689323,-0.0031 -1.033977,-0.0062 -0.860029,-0.005 -1.720042,-0.0122 -2.580078,-0.01603 -1.670284,-0.0067 -3.340577,-0.009 -5.010872,-0.01077 -1.4575531,9.26e-4 -2.9152311,0.0038 -4.3725591,0.03183 0,0 1.129734,-0.8208 1.129734,-0.8208 z"
       inkscape:connector-curvature="0" />
    <path
       style="fill:#ff6600;stroke-width:0.26458332"
       id="path16-0"
       d="m 7.5822015,12.883015 c 1.428111,0.02862 2.8566035,0.03091 4.2849525,0.03182 1.680172,-0.0018 3.360343,-0.0041 5.040503,-0.01077 0.874744,-0.0038 1.749466,-0.01103 2.624202,-0.01603 0.35033,-0.0031 0.700664,-0.0048 1.051003,-0.0062 0.209021,-8.47e-4 0.418044,-0.0011 0.627066,-0.0013 0,0 -1.136451,0.82568 -1.136451,0.82568 v 0 c -0.207842,-1.44e-4 -0.415684,-4.24e-4 -0.623524,-0.0013 -0.344665,-0.0013 -0.689323,-0.0031 -1.033977,-0.0062 -0.860029,-0.005 -1.720042,-0.0122 -2.580078,-0.01603 -1.670283,-0.0067 -3.340576,-0.009 -5.010871,-0.01077 -1.4575535,9.26e-4 -2.9152305,0.0038 -4.3725595,0.03182 0,0 1.129734,-0.8208 1.129734,-0.8208 z"
       inkscape:connector-curvature="0" />
  </g>
</svg>
